<svg xmlns="http://www.w3.org/2000/svg" viewBox="0 0 1200 630" width="1200" height="630">
<defs><linearGradient id="fpg" x1="0" y1="0" x2="1" y2="1"><stop offset="0" stop-color="#ffffff"/><stop offset="0.55" stop-color="#c7cbe8"/><stop offset="1" stop-color="#6e7bff"/></linearGradient>
<radialGradient id="bgw" cx="0.76" cy="0.48" r="0.62">
<stop offset="0" stop-color="#131320"/><stop offset="0.55" stop-color="#050507"/><stop offset="1" stop-color="#000000"/>
</radialGradient></defs>
<rect width="1200" height="630" fill="url(#bgw)"/>
<rect x="48" y="48" width="1104" height="534" fill="none" stroke="rgba(255,255,255,.14)"/>
<g stroke="url(#fpg)" stroke-linecap="butt">
<line x1="930" y1="254.8" x2="930" y2="225.2" stroke-opacity="0.663" stroke-width="0.80"/>
<line x1="931.8" y1="254.8" x2="933.2" y2="204.4" stroke-opacity="0.92" stroke-width="1.12"/>
<line x1="933.5" y1="254.9" x2="936" y2="211.8" stroke-opacity="0.881" stroke-width="1.12"/>
<line x1="935.2" y1="255" x2="938.6" y2="216.5" stroke-opacity="0.809" stroke-width="1.12"/>
<line x1="937" y1="255.2" x2="940.6" y2="224.2" stroke-opacity="0.689" stroke-width="0.80"/>
<line x1="938.7" y1="255.4" x2="944" y2="219.4" stroke-opacity="0.773" stroke-width="0.80"/>
<line x1="940.5" y1="255.7" x2="947.2" y2="217.5" stroke-opacity="0.81" stroke-width="1.12"/>
<line x1="942.2" y1="256" x2="950.6" y2="215.1" stroke-opacity="0.859" stroke-width="1.12"/>
<line x1="943.9" y1="256.4" x2="952.9" y2="218.4" stroke-opacity="0.815" stroke-width="1.12"/>
<line x1="945.6" y1="256.9" x2="953.6" y2="226.9" stroke-opacity="0.686" stroke-width="0.80"/>
<line x1="947.3" y1="257.3" x2="957.8" y2="222.3" stroke-opacity="0.775" stroke-width="0.80"/>
<line x1="948.9" y1="257.9" x2="958.5" y2="228.9" stroke-opacity="0.676" stroke-width="0.80"/>
<line x1="950.6" y1="258.4" x2="961.6" y2="228.3" stroke-opacity="0.702" stroke-width="0.80"/>
<line x1="952.2" y1="259.1" x2="963.3" y2="231.1" stroke-opacity="0.67" stroke-width="0.80"/>
<line x1="953.8" y1="259.7" x2="966" y2="231.4" stroke-opacity="0.682" stroke-width="0.80"/>
<line x1="955.4" y1="260.4" x2="966.4" y2="237" stroke-opacity="0.603" stroke-width="0.80"/>
<line x1="957" y1="261.2" x2="972.1" y2="231.2" stroke-opacity="0.727" stroke-width="0.80"/>
<line x1="958.6" y1="262" x2="974" y2="233.3" stroke-opacity="0.711" stroke-width="0.80"/>
<line x1="960.1" y1="262.9" x2="981.5" y2="225.8" stroke-opacity="0.874" stroke-width="1.12"/>
<line x1="961.6" y1="263.8" x2="977.4" y2="238.1" stroke-opacity="0.672" stroke-width="0.80"/>
<line x1="963.1" y1="264.7" x2="981.7" y2="236.4" stroke-opacity="0.732" stroke-width="0.80"/>
<line x1="964.5" y1="265.7" x2="984.3" y2="237.5" stroke-opacity="0.74" stroke-width="0.80"/>
<line x1="965.9" y1="266.7" x2="985.9" y2="239.8" stroke-opacity="0.725" stroke-width="0.80"/>
<line x1="967.3" y1="267.8" x2="987" y2="243" stroke-opacity="0.695" stroke-width="0.80"/>
<line x1="968.7" y1="268.9" x2="993" y2="239.9" stroke-opacity="0.795" stroke-width="1.12"/>
<line x1="970" y1="270" x2="997.1" y2="239.7" stroke-opacity="0.84" stroke-width="1.12"/>
<line x1="971.3" y1="271.2" x2="1002.3" y2="238.4" stroke-opacity="0.911" stroke-width="1.12"/>
<line x1="972.6" y1="272.4" x2="1001.6" y2="243.4" stroke-opacity="0.847" stroke-width="1.12"/>
<line x1="973.8" y1="273.7" x2="1001.7" y2="247.4" stroke-opacity="0.803" stroke-width="1.12"/>
<line x1="975" y1="275" x2="998" y2="254.5" stroke-opacity="0.683" stroke-width="0.80"/>
<line x1="976.1" y1="276.3" x2="1007.9" y2="249.6" stroke-opacity="0.853" stroke-width="1.12"/>
<line x1="977.2" y1="277.7" x2="999.9" y2="259.7" stroke-opacity="0.652" stroke-width="0.80"/>
<line x1="978.3" y1="279.1" x2="1002.8" y2="260.8" stroke-opacity="0.678" stroke-width="0.80"/>
<line x1="979.3" y1="280.5" x2="1009.9" y2="259" stroke-opacity="0.788" stroke-width="0.80"/>
<line x1="980.3" y1="281.9" x2="1006.7" y2="264.6" stroke-opacity="0.694" stroke-width="0.80"/>
<line x1="981.2" y1="283.4" x2="1004" y2="269.3" stroke-opacity="0.617" stroke-width="0.80"/>
<line x1="982.1" y1="284.9" x2="1009.3" y2="269.2" stroke-opacity="0.692" stroke-width="0.80"/>
<line x1="983" y1="286.4" x2="1010.9" y2="271.4" stroke-opacity="0.696" stroke-width="0.80"/>
<line x1="983.8" y1="288" x2="1015.6" y2="272" stroke-opacity="0.758" stroke-width="0.80"/>
<line x1="984.6" y1="289.6" x2="1014.1" y2="275.8" stroke-opacity="0.71" stroke-width="0.80"/>
<line x1="985.3" y1="291.2" x2="1012.8" y2="279.3" stroke-opacity="0.668" stroke-width="0.80"/>
<line x1="985.9" y1="292.8" x2="1018.8" y2="279.7" stroke-opacity="0.755" stroke-width="0.80"/>
<line x1="986.6" y1="294.4" x2="1021.8" y2="281.6" stroke-opacity="0.79" stroke-width="0.80"/>
<line x1="987.1" y1="296.1" x2="1021.8" y2="284.6" stroke-opacity="0.774" stroke-width="0.80"/>
<line x1="987.7" y1="297.7" x2="1026" y2="286.3" stroke-opacity="0.83" stroke-width="1.12"/>
<line x1="988.1" y1="299.4" x2="1020.9" y2="290.6" stroke-opacity="0.731" stroke-width="0.80"/>
<line x1="988.6" y1="301.1" x2="1022.9" y2="293" stroke-opacity="0.753" stroke-width="0.80"/>
<line x1="989" y1="302.8" x2="1017.3" y2="297" stroke-opacity="0.652" stroke-width="0.80"/>
<line x1="989.3" y1="304.5" x2="1023.5" y2="298.5" stroke-opacity="0.746" stroke-width="0.80"/>
<line x1="989.6" y1="306.3" x2="1028.8" y2="300.5" stroke-opacity="0.824" stroke-width="1.12"/>
<line x1="989.8" y1="308" x2="1025.9" y2="303.8" stroke-opacity="0.771" stroke-width="0.80"/>
<line x1="990" y1="309.8" x2="1022.9" y2="306.9" stroke-opacity="0.718" stroke-width="0.80"/>
<line x1="990.1" y1="311.5" x2="1029.3" y2="309.2" stroke-opacity="0.817" stroke-width="1.12"/>
<line x1="990.2" y1="313.2" x2="1026.1" y2="312.2" stroke-opacity="0.765" stroke-width="0.80"/>
<line x1="990.2" y1="315" x2="1040.7" y2="315" stroke-opacity="0.92" stroke-width="1.12"/>
<line x1="990.2" y1="316.8" x2="1025.2" y2="317.8" stroke-opacity="0.751" stroke-width="0.80"/>
<line x1="990.1" y1="318.5" x2="1024.5" y2="320.5" stroke-opacity="0.74" stroke-width="0.80"/>
<line x1="990" y1="320.2" x2="1029.3" y2="323.7" stroke-opacity="0.822" stroke-width="1.12"/>
<line x1="989.8" y1="322" x2="1026" y2="326.2" stroke-opacity="0.773" stroke-width="0.80"/>
<line x1="989.6" y1="323.7" x2="1024.1" y2="328.8" stroke-opacity="0.748" stroke-width="0.80"/>
<line x1="989.3" y1="325.5" x2="1024.5" y2="331.7" stroke-opacity="0.761" stroke-width="0.80"/>
<line x1="989" y1="327.2" x2="1022.7" y2="334.1" stroke-opacity="0.741" stroke-width="0.80"/>
<line x1="988.6" y1="328.9" x2="1020.9" y2="336.5" stroke-opacity="0.721" stroke-width="0.80"/>
<line x1="988.1" y1="330.6" x2="1019.1" y2="338.9" stroke-opacity="0.702" stroke-width="0.80"/>
<line x1="987.7" y1="332.3" x2="1012.3" y2="339.7" stroke-opacity="0.601" stroke-width="0.80"/>
<line x1="987.1" y1="333.9" x2="1022.1" y2="345.5" stroke-opacity="0.779" stroke-width="0.80"/>
<line x1="986.6" y1="335.6" x2="1011.8" y2="344.8" stroke-opacity="0.618" stroke-width="0.80"/>
<line x1="985.9" y1="337.2" x2="1005.5" y2="345" stroke-opacity="0.525" stroke-width="0.80"/>
<line x1="985.3" y1="338.8" x2="1002.8" y2="346.4" stroke-opacity="0.494" stroke-width="0.80"/>
<line x1="984.6" y1="340.4" x2="1007" y2="350.9" stroke-opacity="0.584" stroke-width="0.80"/>
<line x1="983.8" y1="342" x2="1009" y2="354.7" stroke-opacity="0.64" stroke-width="0.80"/>
<line x1="983" y1="343.6" x2="1006" y2="356" stroke-opacity="0.607" stroke-width="0.80"/>
<line x1="982.1" y1="345.1" x2="1004.2" y2="357.8" stroke-opacity="0.596" stroke-width="0.80"/>
<line x1="981.2" y1="346.6" x2="1014.4" y2="367.1" stroke-opacity="0.814" stroke-width="1.12"/>
<line x1="980.3" y1="348.1" x2="1012.4" y2="369.2" stroke-opacity="0.803" stroke-width="1.12"/>
<line x1="979.3" y1="349.5" x2="1006.2" y2="368.4" stroke-opacity="0.715" stroke-width="0.80"/>
<line x1="978.3" y1="350.9" x2="1003.6" y2="369.8" stroke-opacity="0.694" stroke-width="0.80"/>
<line x1="977.2" y1="352.3" x2="1011.5" y2="379.4" stroke-opacity="0.888" stroke-width="1.12"/>
<line x1="976.1" y1="353.7" x2="1005.7" y2="378.5" stroke-opacity="0.807" stroke-width="1.12"/>
<line x1="975" y1="355" x2="1002.6" y2="379.6" stroke-opacity="0.78" stroke-width="0.80"/>
<line x1="973.8" y1="356.3" x2="998.9" y2="380" stroke-opacity="0.741" stroke-width="0.80"/>
<line x1="972.6" y1="357.6" x2="999" y2="384" stroke-opacity="0.786" stroke-width="0.80"/>
<line x1="971.3" y1="358.8" x2="994.7" y2="383.6" stroke-opacity="0.734" stroke-width="0.80"/>
<line x1="970" y1="360" x2="998.7" y2="392.2" stroke-opacity="0.881" stroke-width="1.12"/>
<line x1="968.7" y1="361.1" x2="993.6" y2="390.8" stroke-opacity="0.81" stroke-width="1.12"/>
<line x1="967.3" y1="362.2" x2="986" y2="385.8" stroke-opacity="0.671" stroke-width="0.80"/>
<line x1="965.9" y1="363.3" x2="988" y2="392.9" stroke-opacity="0.78" stroke-width="0.80"/>
<line x1="964.5" y1="364.3" x2="984.7" y2="393.2" stroke-opacity="0.753" stroke-width="0.80"/>
<line x1="963.1" y1="365.3" x2="978.1" y2="388.2" stroke-opacity="0.627" stroke-width="0.80"/>
<line x1="961.6" y1="366.2" x2="975" y2="387.9" stroke-opacity="0.596" stroke-width="0.80"/>
<line x1="960.1" y1="367.1" x2="978.9" y2="399.7" stroke-opacity="0.791" stroke-width="1.12"/>
<line x1="958.6" y1="368" x2="975.3" y2="399.1" stroke-opacity="0.754" stroke-width="0.80"/>
<line x1="957" y1="368.8" x2="970.9" y2="396.4" stroke-opacity="0.683" stroke-width="0.80"/>
<line x1="955.4" y1="369.6" x2="965.7" y2="391.5" stroke-opacity="0.576" stroke-width="0.80"/>
<line x1="953.8" y1="370.3" x2="963.6" y2="392.8" stroke-opacity="0.581" stroke-width="0.80"/>
<line x1="952.2" y1="370.9" x2="964.1" y2="400.9" stroke-opacity="0.705" stroke-width="0.80"/>
<line x1="950.6" y1="371.6" x2="959.3" y2="395.4" stroke-opacity="0.594" stroke-width="0.80"/>
<line x1="948.9" y1="372.1" x2="958.2" y2="400" stroke-opacity="0.658" stroke-width="0.80"/>
<line x1="947.3" y1="372.7" x2="958.1" y2="408.9" stroke-opacity="0.795" stroke-width="1.12"/>
<line x1="945.6" y1="373.1" x2="955.9" y2="411.6" stroke-opacity="0.827" stroke-width="1.12"/>
<line x1="943.9" y1="373.6" x2="955.5" y2="422.7" stroke-opacity="0.92" stroke-width="1.12"/>
<line x1="942.2" y1="374" x2="951.2" y2="417.5" stroke-opacity="0.901" stroke-width="1.12"/>
<line x1="940.5" y1="374.3" x2="945.4" y2="402.4" stroke-opacity="0.645" stroke-width="0.80"/>
<line x1="938.7" y1="374.6" x2="943.4" y2="406.4" stroke-opacity="0.705" stroke-width="0.80"/>
<line x1="937" y1="374.8" x2="942.8" y2="424.9" stroke-opacity="0.92" stroke-width="1.12"/>
<line x1="935.2" y1="375" x2="937.8" y2="404.4" stroke-opacity="0.661" stroke-width="0.80"/>
<line x1="933.5" y1="375.1" x2="935.4" y2="408.1" stroke-opacity="0.718" stroke-width="0.80"/>
<line x1="931.8" y1="375.2" x2="932.6" y2="404" stroke-opacity="0.65" stroke-width="0.80"/>
<line x1="930" y1="375.2" x2="930" y2="406.7" stroke-opacity="0.693" stroke-width="0.80"/>
<line x1="928.2" y1="375.2" x2="927.3" y2="407.3" stroke-opacity="0.703" stroke-width="0.80"/>
<line x1="926.5" y1="375.1" x2="924.2" y2="414.3" stroke-opacity="0.818" stroke-width="1.12"/>
<line x1="924.8" y1="375" x2="921.4" y2="413.3" stroke-opacity="0.804" stroke-width="1.12"/>
<line x1="923" y1="374.8" x2="919.2" y2="407.8" stroke-opacity="0.721" stroke-width="0.80"/>
<line x1="921.3" y1="374.6" x2="914.2" y2="423.1" stroke-opacity="0.92" stroke-width="1.12"/>
<line x1="919.5" y1="374.3" x2="913.8" y2="406.9" stroke-opacity="0.718" stroke-width="0.80"/>
<line x1="917.8" y1="374" x2="911" y2="406.9" stroke-opacity="0.727" stroke-width="0.80"/>
<line x1="916.1" y1="373.6" x2="909.1" y2="403.1" stroke-opacity="0.674" stroke-width="0.80"/>
<line x1="914.4" y1="373.1" x2="906.1" y2="404.3" stroke-opacity="0.705" stroke-width="0.80"/>
<line x1="912.7" y1="372.7" x2="905" y2="398.4" stroke-opacity="0.619" stroke-width="0.80"/>
<line x1="911.1" y1="372.1" x2="901.9" y2="399.9" stroke-opacity="0.657" stroke-width="0.80"/>
<line x1="909.4" y1="371.6" x2="901.6" y2="393.1" stroke-opacity="0.556" stroke-width="0.80"/>
<line x1="907.8" y1="370.9" x2="899.6" y2="391.4" stroke-opacity="0.541" stroke-width="0.80"/>
<line x1="906.2" y1="370.3" x2="893.8" y2="398.9" stroke-opacity="0.688" stroke-width="0.80"/>
<line x1="904.6" y1="369.6" x2="895.3" y2="389.4" stroke-opacity="0.538" stroke-width="0.80"/>
<line x1="903" y1="368.8" x2="892.2" y2="390.3" stroke-opacity="0.573" stroke-width="0.80"/>
<line x1="901.4" y1="368" x2="886.8" y2="395" stroke-opacity="0.681" stroke-width="0.80"/>
<line x1="899.9" y1="367.1" x2="885.1" y2="392.8" stroke-opacity="0.663" stroke-width="0.80"/>
<line x1="898.4" y1="366.2" x2="881.1" y2="394.4" stroke-opacity="0.718" stroke-width="0.80"/>
<line x1="896.9" y1="365.3" x2="878.2" y2="393.8" stroke-opacity="0.736" stroke-width="0.80"/>
<line x1="895.5" y1="364.3" x2="876.6" y2="391.3" stroke-opacity="0.716" stroke-width="0.80"/>
<line x1="894.1" y1="363.3" x2="868.9" y2="397.1" stroke-opacity="0.864" stroke-width="1.12"/>
<line x1="892.7" y1="362.2" x2="869.7" y2="391.3" stroke-opacity="0.783" stroke-width="0.80"/>
<line x1="891.3" y1="361.1" x2="859.1" y2="399.5" stroke-opacity="0.92" stroke-width="1.12"/>
<line x1="890" y1="360" x2="865.6" y2="387.4" stroke-opacity="0.776" stroke-width="0.80"/>
<line x1="888.7" y1="358.8" x2="857.4" y2="391.9" stroke-opacity="0.918" stroke-width="1.12"/>
<line x1="887.4" y1="357.6" x2="856.2" y2="388.8" stroke-opacity="0.896" stroke-width="1.12"/>
<line x1="886.2" y1="356.3" x2="859.1" y2="381.9" stroke-opacity="0.786" stroke-width="0.80"/>
<line x1="885" y1="355" x2="859.3" y2="377.9" stroke-opacity="0.741" stroke-width="0.80"/>
<line x1="883.9" y1="353.7" x2="851.6" y2="380.8" stroke-opacity="0.864" stroke-width="1.12"/>
<line x1="882.8" y1="352.3" x2="852.1" y2="376.6" stroke-opacity="0.816" stroke-width="1.12"/>
<line x1="881.7" y1="350.9" x2="851.5" y2="373.5" stroke-opacity="0.792" stroke-width="1.12"/>
<line x1="880.7" y1="349.5" x2="854.2" y2="368.1" stroke-opacity="0.707" stroke-width="0.80"/>
<line x1="879.7" y1="348.1" x2="854.1" y2="364.9" stroke-opacity="0.678" stroke-width="0.80"/>
<line x1="878.8" y1="346.6" x2="856.7" y2="360.2" stroke-opacity="0.604" stroke-width="0.80"/>
<line x1="877.9" y1="345.1" x2="848.8" y2="361.9" stroke-opacity="0.726" stroke-width="0.80"/>
<line x1="877" y1="343.6" x2="853.1" y2="356.5" stroke-opacity="0.624" stroke-width="0.80"/>
<line x1="876.2" y1="342" x2="852.9" y2="353.7" stroke-opacity="0.606" stroke-width="0.80"/>
<line x1="875.4" y1="340.4" x2="842.1" y2="356" stroke-opacity="0.779" stroke-width="0.80"/>
<line x1="874.7" y1="338.8" x2="849.8" y2="349.6" stroke-opacity="0.623" stroke-width="0.80"/>
<line x1="874.1" y1="337.2" x2="844.7" y2="348.9" stroke-opacity="0.694" stroke-width="0.80"/>
<line x1="873.4" y1="335.6" x2="847.2" y2="345.1" stroke-opacity="0.635" stroke-width="0.80"/>
<line x1="872.9" y1="333.9" x2="843.3" y2="343.7" stroke-opacity="0.688" stroke-width="0.80"/>
<line x1="872.3" y1="332.3" x2="834.5" y2="343.6" stroke-opacity="0.821" stroke-width="1.12"/>
<line x1="871.9" y1="330.6" x2="838.5" y2="339.5" stroke-opacity="0.742" stroke-width="0.80"/>
<line x1="871.4" y1="328.9" x2="843.5" y2="335.5" stroke-opacity="0.649" stroke-width="0.80"/>
<line x1="871" y1="327.2" x2="833.1" y2="335" stroke-opacity="0.809" stroke-width="1.12"/>
<line x1="870.7" y1="325.5" x2="821" y2="334.2" stroke-opacity="0.92" stroke-width="1.12"/>
<line x1="870.4" y1="323.7" x2="838.7" y2="328.4" stroke-opacity="0.702" stroke-width="0.80"/>
<line x1="870.2" y1="322" x2="833.4" y2="326.3" stroke-opacity="0.782" stroke-width="0.80"/>
<line x1="870" y1="320.2" x2="833.4" y2="323.4" stroke-opacity="0.777" stroke-width="0.80"/>
<line x1="869.9" y1="318.5" x2="836.2" y2="320.5" stroke-opacity="0.729" stroke-width="0.80"/>
<line x1="869.8" y1="316.8" x2="831.7" y2="317.9" stroke-opacity="0.799" stroke-width="1.12"/>
<line x1="869.8" y1="315" x2="828.2" y2="315" stroke-opacity="0.855" stroke-width="1.12"/>
<line x1="869.8" y1="313.2" x2="832.2" y2="312.2" stroke-opacity="0.792" stroke-width="1.12"/>
<line x1="869.9" y1="311.5" x2="830.2" y2="309.2" stroke-opacity="0.826" stroke-width="1.12"/>
<line x1="870" y1="309.8" x2="826.1" y2="305.9" stroke-opacity="0.895" stroke-width="1.12"/>
<line x1="870.2" y1="308" x2="831.7" y2="303.5" stroke-opacity="0.811" stroke-width="1.12"/>
<line x1="870.4" y1="306.3" x2="820.5" y2="299" stroke-opacity="0.92" stroke-width="1.12"/>
<line x1="870.7" y1="304.5" x2="839" y2="298.9" stroke-opacity="0.705" stroke-width="0.80"/>
<line x1="871" y1="302.8" x2="841.3" y2="296.7" stroke-opacity="0.675" stroke-width="0.80"/>
<line x1="871.4" y1="301.1" x2="831.4" y2="291.6" stroke-opacity="0.847" stroke-width="1.12"/>
<line x1="871.9" y1="299.4" x2="836.9" y2="290.1" stroke-opacity="0.768" stroke-width="0.80"/>
<line x1="872.3" y1="297.7" x2="845.1" y2="289.6" stroke-opacity="0.644" stroke-width="0.80"/>
<line x1="872.9" y1="296.1" x2="838" y2="284.5" stroke-opacity="0.777" stroke-width="0.80"/>
<line x1="873.4" y1="294.4" x2="849.8" y2="285.8" stroke-opacity="0.592" stroke-width="0.80"/>
<line x1="874.1" y1="292.8" x2="847.8" y2="282.3" stroke-opacity="0.642" stroke-width="0.80"/>
<line x1="874.7" y1="291.2" x2="848" y2="279.6" stroke-opacity="0.654" stroke-width="0.80"/>
<line x1="875.4" y1="289.6" x2="855.8" y2="280.4" stroke-opacity="0.535" stroke-width="0.80"/>
<line x1="876.2" y1="288" x2="851.4" y2="275.5" stroke-opacity="0.632" stroke-width="0.80"/>
<line x1="877" y1="286.4" x2="849.7" y2="271.7" stroke-opacity="0.685" stroke-width="0.80"/>
<line x1="877.9" y1="284.9" x2="856.4" y2="272.5" stroke-opacity="0.585" stroke-width="0.80"/>
<line x1="878.8" y1="283.4" x2="856" y2="269.4" stroke-opacity="0.616" stroke-width="0.80"/>
<line x1="879.7" y1="281.9" x2="851" y2="263.1" stroke-opacity="0.738" stroke-width="0.80"/>
<line x1="880.7" y1="280.5" x2="850.5" y2="259.3" stroke-opacity="0.779" stroke-width="0.80"/>
<line x1="881.7" y1="279.1" x2="855.9" y2="259.9" stroke-opacity="0.703" stroke-width="0.80"/>
<line x1="882.8" y1="277.7" x2="856.7" y2="257" stroke-opacity="0.721" stroke-width="0.80"/>
<line x1="883.9" y1="276.3" x2="851" y2="248.7" stroke-opacity="0.876" stroke-width="1.12"/>
<line x1="885" y1="275" x2="856.2" y2="249.3" stroke-opacity="0.807" stroke-width="1.12"/>
<line x1="886.2" y1="273.7" x2="860.5" y2="249.4" stroke-opacity="0.756" stroke-width="0.80"/>
<line x1="887.4" y1="272.4" x2="861" y2="246" stroke-opacity="0.787" stroke-width="0.80"/>
<line x1="888.7" y1="271.2" x2="861.9" y2="242.8" stroke-opacity="0.815" stroke-width="1.12"/>
<line x1="890" y1="270" x2="864.7" y2="241.6" stroke-opacity="0.799" stroke-width="1.12"/>
<line x1="891.3" y1="268.9" x2="870.9" y2="244.6" stroke-opacity="0.697" stroke-width="0.80"/>
<line x1="892.7" y1="267.8" x2="870.1" y2="239.3" stroke-opacity="0.771" stroke-width="0.80"/>
<line x1="894.1" y1="266.7" x2="875.5" y2="241.8" stroke-opacity="0.686" stroke-width="0.80"/>
<line x1="895.5" y1="265.7" x2="876.7" y2="238.9" stroke-opacity="0.712" stroke-width="0.80"/>
<line x1="896.9" y1="264.7" x2="883.7" y2="244.7" stroke-opacity="0.573" stroke-width="0.80"/>
<line x1="898.4" y1="263.8" x2="882.4" y2="237.8" stroke-opacity="0.677" stroke-width="0.80"/>
<line x1="899.9" y1="262.9" x2="878.7" y2="226.1" stroke-opacity="0.868" stroke-width="1.12"/>
<line x1="901.4" y1="262" x2="884.7" y2="230.9" stroke-opacity="0.755" stroke-width="0.80"/>
<line x1="903" y1="261.2" x2="890.2" y2="235.8" stroke-opacity="0.645" stroke-width="0.80"/>
<line x1="904.6" y1="260.4" x2="889.9" y2="228.9" stroke-opacity="0.745" stroke-width="0.80"/>
<line x1="906.2" y1="259.7" x2="896.3" y2="236.9" stroke-opacity="0.587" stroke-width="0.80"/>
<line x1="907.8" y1="259.1" x2="895.1" y2="227.2" stroke-opacity="0.737" stroke-width="0.80"/>
<line x1="909.4" y1="258.4" x2="896.9" y2="224.1" stroke-opacity="0.773" stroke-width="0.80"/>
<line x1="911.1" y1="257.9" x2="902.7" y2="232.7" stroke-opacity="0.613" stroke-width="0.80"/>
<line x1="912.7" y1="257.3" x2="903.7" y2="227.1" stroke-opacity="0.693" stroke-width="0.80"/>
<line x1="914.4" y1="256.9" x2="904.2" y2="218.9" stroke-opacity="0.819" stroke-width="1.12"/>
<line x1="916.1" y1="256.4" x2="906.9" y2="217.6" stroke-opacity="0.828" stroke-width="1.12"/>
<line x1="917.8" y1="256" x2="912.2" y2="228.7" stroke-opacity="0.636" stroke-width="0.80"/>
<line x1="919.5" y1="255.7" x2="913.4" y2="220.8" stroke-opacity="0.756" stroke-width="0.80"/>
<line x1="921.3" y1="255.4" x2="915.6" y2="216.7" stroke-opacity="0.816" stroke-width="1.12"/>
<line x1="923" y1="255.2" x2="918.3" y2="215.1" stroke-opacity="0.835" stroke-width="1.12"/>
<line x1="924.8" y1="255" x2="922" y2="223.6" stroke-opacity="0.695" stroke-width="0.80"/>
<line x1="926.5" y1="254.9" x2="924.6" y2="223" stroke-opacity="0.701" stroke-width="0.80"/>
<line x1="928.2" y1="254.8" x2="927.2" y2="218.5" stroke-opacity="0.771" stroke-width="0.80"/>
</g>
<text x="96" y="140" font-family="Archivo" font-weight="700" font-size="28" fill="#ffffff" letter-spacing="1">DOPPELGÄNGER.md</text>
<text x="96" y="296" font-family="Archivo" font-weight="700" font-size="57" fill="#ffffff" letter-spacing="-2">One open Markdown file</text>
<text x="96" y="356" font-family="Archivo" font-weight="700" font-size="57" fill="#ffffff" letter-spacing="-2">that teaches any AI</text>
<text x="96" y="416" font-family="Archivo" font-weight="700" font-size="57" fill="#ffffff" letter-spacing="-2">your voice.</text>
<text x="96" y="530" font-family="JetBrains Mono" font-size="16" fill="#55555b" letter-spacing="1.2">Spec 0.1 · CC0 1.0 · no account, no loader</text>
</svg>
